<svg id="visual" viewBox="0 0 900 600" width="900" height="600" xmlns="http://www.w3.org/2000/svg" xmlns:xlink="http://www.w3.org/1999/xlink" version="1.1"><rect x="0" y="0" width="900" height="600" fill="#001220"></rect><defs><linearGradient id="grad1_0" x1="33.3%" y1="0%" x2="100%" y2="100%"><stop offset="20%" stop-color="#001220" stop-opacity="1"></stop><stop offset="80%" stop-color="#001220" stop-opacity="1"></stop></linearGradient></defs><defs><linearGradient id="grad2_0" x1="0%" y1="0%" x2="66.7%" y2="100%"><stop offset="20%" stop-color="#001220" stop-opacity="1"></stop><stop offset="80%" stop-color="#001220" stop-opacity="1"></stop></linearGradient></defs><g transform="translate(900, 0)"><path d="M0 486.7C-42.3 430.4 -84.5 374.1 -148.9 359.4C-213.2 344.6 -299.6 371.5 -344.2 344.2C-388.8 316.9 -391.6 235.5 -408.4 169.1C-425.1 102.8 -455.9 51.4 -486.7 0L0 0Z" fill="#FBAE3C"></path></g><g transform="translate(0, 600)"><path d="M0 -486.7C69.3 -486.7 138.6 -486.7 186.3 -449.7C234 -412.7 260.1 -338.7 284.3 -284.3C308.4 -229.8 330.6 -194.9 364 -150.8C397.4 -106.7 442.1 -53.3 486.7 0L0 0Z" fill="#FBAE3C"></path></g></svg>