<svg id="visual" viewBox="0 0 900 600" width="900" height="600" xmlns="http://www.w3.org/2000/svg" xmlns:xlink="http://www.w3.org/1999/xlink" version="1.1"><rect x="0" y="0" width="900" height="600" fill="#002233"></rect><path d="M0 388L21.5 384.8C43 381.7 86 375.3 128.8 383.3C171.7 391.3 214.3 413.7 257.2 429.5C300 445.3 343 454.7 385.8 432.5C428.7 410.3 471.3 356.7 514.2 335.8C557 315 600 327 642.8 340.3C685.7 353.7 728.3 368.3 771.2 364.8C814 361.3 857 339.7 878.5 328.8L900 318L900 601L878.5 601C857 601 814 601 771.2 601C728.3 601 685.7 601 642.8 601C600 601 557 601 514.2 601C471.3 601 428.7 601 385.8 601C343 601 300 601 257.2 601C214.3 601 171.7 601 128.8 601C86 601 43 601 21.5 601L0 601Z" fill="#FBAE3C" stroke-linecap="round" stroke-linejoin="miter"></path></svg>